<svg version="1.1" id="Layer_1" xmlns="http://www.w3.org/2000/svg" xmlns:xlink="http://www.w3.org/1999/xlink" x="0px" y="0px"
	 width="100%" viewBox="0 0 892 715" enable-background="new 0 0 892 715" xml:space="preserve">
<path fill="#010000" opacity="1.000000" stroke="none" 
	d="
M1.000000,715.000000 
	C1.000000,477.042694 1.000000,239.085373 1.000000,1.064028 
	C298.237305,1.064028 595.474670,1.064028 893.000000,1.064028 
	C893.000000,238.694626 893.000000,476.389374 892.544067,714.541504 
	C595.058777,714.999207 298.029388,714.999634 1.000000,715.000000 
M842.629089,589.951355 
	C807.092712,579.513977 770.958435,571.679016 734.495911,565.328857 
	C730.577454,564.646362 729.304504,563.350586 729.552795,559.238464 
	C731.169739,532.458069 728.890808,505.942749 722.979919,479.789032 
	C695.045105,356.185883 589.037048,266.040894 462.508270,259.163666 
	C395.979340,255.547592 334.633942,272.539886 281.014008,312.372559 
	C200.058975,372.511658 160.819092,453.679047 163.455521,554.739746 
	C163.708099,564.422241 163.898026,564.404907 154.414490,566.097046 
	C109.746384,574.067139 65.634262,584.279968 22.587402,598.789612 
	C19.700203,599.762756 16.336098,600.572388 17.098232,604.593689 
	C17.905689,608.854126 21.397697,608.441589 24.670130,608.134644 
	C37.278389,606.952087 49.870731,605.479614 62.505337,604.718018 
	C134.194962,600.397400 205.853653,595.245056 277.601685,592.288269 
	C377.201355,588.183533 476.889130,587.838806 576.535156,591.139648 
	C634.158020,593.048462 691.768433,595.662476 749.333618,598.870728 
	C787.756531,601.012024 826.090332,604.752991 864.462646,607.796082 
	C867.775330,608.058716 871.099609,608.207458 872.017639,604.049255 
	C872.930054,599.916077 870.006470,598.517883 866.769409,597.504700 
	C858.979248,595.066589 851.196228,592.605835 842.629089,589.951355 
M595.016541,118.786247 
	C592.624878,113.443306 588.415771,110.947731 582.666809,111.338081 
	C576.983582,111.723991 573.703552,115.191406 571.991211,120.411911 
	C559.272827,159.189606 546.516052,197.954742 533.841187,236.746628 
	C531.215820,244.781754 534.021667,251.310730 540.762451,253.597382 
	C547.701843,255.951401 554.212036,252.255310 556.863892,244.207245 
	C569.531921,205.760208 582.187500,167.308853 594.669312,128.801224 
	C595.594910,125.945595 595.116028,122.634743 595.016541,118.786247 
M345.608612,160.801315 
	C341.011932,146.532791 336.469360,132.246506 331.789703,118.005241 
	C330.112030,112.899673 326.860748,109.280907 321.130524,108.818588 
	C316.002899,108.404877 311.395996,110.304245 309.580414,114.971077 
	C308.261261,118.361885 308.121735,122.897163 309.172272,126.408798 
	C314.470490,144.119263 320.328430,161.662354 325.996002,179.262222 
	C332.633392,199.873535 339.312897,220.471405 345.893463,241.100830 
	C347.599457,246.448883 350.571686,250.375000 356.435730,251.095886 
	C365.894592,252.258713 372.251129,243.994415 369.195221,234.352554 
	C361.496002,210.060410 353.647736,185.815491 345.608612,160.801315 
M694.145996,338.683685 
	C692.708252,339.813568 691.155823,340.825592 689.852539,342.093658 
	C684.080017,347.710205 685.011230,356.781464 691.862549,360.924957 
	C697.024048,364.046448 701.862488,363.206207 706.690735,359.667114 
	C723.338074,347.464630 740.108398,335.429901 756.830811,323.329895 
	C771.665100,312.596069 786.510864,301.878082 801.325928,291.117767 
	C808.220337,286.110321 809.962402,279.315033 805.944275,273.512115 
	C801.625122,267.274475 794.336487,266.561157 787.079956,271.667999 
	C786.399414,272.147003 785.726624,272.637115 785.051514,273.123932 
	C754.941772,294.834473 724.832214,316.545258 694.145996,338.683685 
M101.968781,286.493835 
	C131.264633,307.906799 160.558365,329.322662 189.861725,350.725342 
	C191.606888,352.000000 193.338913,353.337402 195.233475,354.354126 
	C200.362564,357.106567 206.473862,355.754486 210.039841,351.240967 
	C213.679138,346.634674 213.728180,340.468414 209.929382,336.080414 
	C208.534256,334.468903 206.757172,333.148590 205.020935,331.877655 
	C174.933945,309.853943 144.827072,287.857422 114.719612,265.861694 
	C113.511116,264.978790 112.314133,264.053802 111.009758,263.333069 
	C105.199112,260.122375 98.413727,261.838287 94.772369,267.373077 
	C91.462265,272.404358 92.543015,279.013062 97.391571,283.077881 
	C98.664902,284.145416 100.053619,285.075317 101.968781,286.493835 
M816.500122,519.411682 
	C799.848389,519.411743 783.196533,519.392029 766.544861,519.420227 
	C758.046021,519.434570 753.101013,523.876038 753.080200,531.400024 
	C753.060120,538.649292 758.484863,543.660400 766.433289,543.719055 
	C769.763428,543.743652 773.093750,543.736328 776.424011,543.750488 
	C809.552307,543.891296 842.680542,544.097656 875.808960,544.120972 
	C882.382751,544.125610 886.891907,539.154541 887.040161,532.597595 
	C887.240845,523.719360 882.987854,519.479614 873.449951,519.437500 
	C854.800354,519.355042 836.150146,519.412476 816.500122,519.411682 
M101.499878,536.141174 
	C110.494522,536.142944 119.492020,536.283081 128.482803,536.097473 
	C134.367126,535.976013 138.746567,532.237854 140.040787,526.848755 
	C141.229141,521.900452 139.245407,516.367554 134.630707,513.968689 
	C132.108215,512.657349 128.930618,512.093323 126.042992,512.075439 
	C91.896652,511.864746 57.749294,511.798615 23.602158,511.780487 
	C21.150534,511.779205 18.537230,512.029175 16.279980,512.894836 
	C11.431328,514.754150 9.120281,518.685913 9.046184,523.823059 
	C8.971851,528.976501 11.940741,533.493042 16.680935,534.995056 
	C19.006510,535.731934 21.580290,535.937378 24.043694,535.948425 
	C49.528854,536.063049 75.014412,536.088806 101.499878,536.141174 
z"/>
<path fill="#BEBEBE" opacity="1.000000" stroke="none" 
	d="
M1.000000,715.500000 
	C298.029388,714.999634 595.058777,714.999207 892.544067,714.999390 
	C892.833374,715.333313 892.684082,715.943848 892.497192,715.955566 
	C891.169128,716.039062 889.833313,716.000000 888.500000,716.000000 
	C592.666687,716.000000 296.833344,716.000000 1.000000,715.500000 
z"/>
<path fill="#FD904C" opacity="1.000000" stroke="none" 
	d="
M843.019714,590.052734 
	C851.196228,592.605835 858.979248,595.066589 866.769409,597.504700 
	C870.006470,598.517883 872.930054,599.916077 872.017639,604.049255 
	C871.099609,608.207458 867.775330,608.058716 864.462646,607.796082 
	C826.090332,604.752991 787.756531,601.012024 749.333618,598.870728 
	C691.768433,595.662476 634.158020,593.048462 576.535156,591.139648 
	C476.889130,587.838806 377.201355,588.183533 277.601685,592.288269 
	C205.853653,595.245056 134.194962,600.397400 62.505337,604.718018 
	C49.870731,605.479614 37.278389,606.952087 24.670130,608.134644 
	C21.397697,608.441589 17.905689,608.854126 17.098232,604.593689 
	C16.336098,600.572388 19.700203,599.762756 22.587402,598.789612 
	C65.634262,584.279968 109.746384,574.067139 154.414490,566.097046 
	C163.898026,564.404907 163.708099,564.422241 163.455521,554.739746 
	C160.819092,453.679047 200.058975,372.511658 281.014008,312.372559 
	C334.633942,272.539886 395.979340,255.547592 462.508270,259.163666 
	C589.037048,266.040894 695.045105,356.185883 722.979919,479.789032 
	C728.890808,505.942749 731.169739,532.458069 729.552795,559.238464 
	C729.304504,563.350586 730.577454,564.646362 734.495911,565.328857 
	C770.958435,571.679016 807.092712,579.513977 843.019714,590.052734 
M443.534485,439.657288 
	C378.475708,441.481110 339.866180,500.607422 344.830200,544.358032 
	C370.014801,543.531738 395.225861,542.704651 420.514160,541.875000 
	C420.704376,540.902100 420.847961,540.273987 420.948242,539.638977 
	C423.124481,525.863464 433.073517,516.806824 446.270294,516.593994 
	C459.188599,516.385559 469.448242,525.009033 471.903381,538.539490 
	C472.458313,541.597717 473.796967,542.158997 476.529388,542.237244 
	C499.501129,542.894653 522.468872,543.690002 545.438904,544.409668 
	C546.539551,544.444214 547.650146,544.158997 548.703308,544.029175 
	C551.140015,489.432953 505.075562,438.153229 443.534485,439.657288 
M293.661316,364.146210 
	C337.886597,325.361969 389.687134,303.780243 448.275055,297.611847 
	C448.056488,296.793762 447.837921,295.975647 447.619354,295.157532 
	C430.646454,294.754761 413.789551,296.466675 397.146790,300.020508 
	C341.680573,311.864532 295.007294,338.941498 258.251007,382.210205 
	C222.340866,424.482880 202.972305,473.634857 199.746277,529.057312 
	C199.471024,533.786133 199.709839,538.544922 199.709839,543.289795 
	C200.569992,543.449829 201.430161,543.609802 202.290314,543.769836 
	C209.973038,472.418365 239.780685,412.457001 293.661316,364.146210 
M250.427811,484.803802 
	C245.250778,502.655884 242.033112,520.817200 242.098068,539.456177 
	C242.107437,542.140442 240.559219,546.454834 245.103546,546.587219 
	C249.234634,546.707642 248.046295,542.482666 248.386612,539.943359 
	C259.580261,456.420074 302.342804,395.519592 378.638367,359.003387 
	C399.497284,349.019989 421.782440,343.297943 444.819489,340.687805 
	C447.254089,340.411987 449.606262,339.408661 451.996674,338.742828 
	C440.664734,332.399048 391.426941,341.711182 361.528625,356.057068 
	C306.239075,382.586151 269.184784,425.403442 250.427811,484.803802 
z"/>
<path fill="#F98D4B" opacity="1.000000" stroke="none" 
	d="
M595.153320,119.160873 
	C595.116028,122.634743 595.594910,125.945595 594.669312,128.801224 
	C582.187500,167.308853 569.531921,205.760208 556.863892,244.207245 
	C554.212036,252.255310 547.701843,255.951401 540.762451,253.597382 
	C534.021667,251.310730 531.215820,244.781754 533.841187,236.746628 
	C546.516052,197.954742 559.272827,159.189606 571.991211,120.411911 
	C573.703552,115.191406 576.983582,111.723991 582.666809,111.338081 
	C588.415771,110.947731 592.624878,113.443306 595.153320,119.160873 
z"/>
<path fill="#F98D4B" opacity="1.000000" stroke="none" 
	d="
M345.733887,161.176483 
	C353.647736,185.815491 361.496002,210.060410 369.195221,234.352554 
	C372.251129,243.994415 365.894592,252.258713 356.435730,251.095886 
	C350.571686,250.375000 347.599457,246.448883 345.893463,241.100830 
	C339.312897,220.471405 332.633392,199.873535 325.996002,179.262222 
	C320.328430,161.662354 314.470490,144.119263 309.172272,126.408798 
	C308.121735,122.897163 308.261261,118.361885 309.580414,114.971077 
	C311.395996,110.304245 316.002899,108.404877 321.130524,108.818588 
	C326.860748,109.280907 330.112030,112.899673 331.789703,118.005241 
	C336.469360,132.246506 341.011932,146.532791 345.733887,161.176483 
z"/>
<path fill="#F98D4B" opacity="1.000000" stroke="none" 
	d="
M694.434326,338.469849 
	C724.832214,316.545258 754.941772,294.834473 785.051514,273.123932 
	C785.726624,272.637115 786.399414,272.147003 787.079956,271.667999 
	C794.336487,266.561157 801.625122,267.274475 805.944275,273.512115 
	C809.962402,279.315033 808.220337,286.110321 801.325928,291.117767 
	C786.510864,301.878082 771.665100,312.596069 756.830811,323.329895 
	C740.108398,335.429901 723.338074,347.464630 706.690735,359.667114 
	C701.862488,363.206207 697.024048,364.046448 691.862549,360.924957 
	C685.011230,356.781464 684.080017,347.710205 689.852539,342.093658 
	C691.155823,340.825592 692.708252,339.813568 694.434326,338.469849 
z"/>
<path fill="#F98D4B" opacity="1.000000" stroke="none" 
	d="
M101.679062,286.281128 
	C100.053619,285.075317 98.664902,284.145416 97.391571,283.077881 
	C92.543015,279.013062 91.462265,272.404358 94.772369,267.373077 
	C98.413727,261.838287 105.199112,260.122375 111.009758,263.333069 
	C112.314133,264.053802 113.511116,264.978790 114.719612,265.861694 
	C144.827072,287.857422 174.933945,309.853943 205.020935,331.877655 
	C206.757172,333.148590 208.534256,334.468903 209.929382,336.080414 
	C213.728180,340.468414 213.679138,346.634674 210.039841,351.240967 
	C206.473862,355.754486 200.362564,357.106567 195.233475,354.354126 
	C193.338913,353.337402 191.606888,352.000000 189.861725,350.725342 
	C160.558365,329.322662 131.264633,307.906799 101.679062,286.281128 
z"/>
<path fill="#F68C4A" opacity="1.000000" stroke="none" 
	d="
M817.000122,519.411865 
	C836.150146,519.412476 854.800354,519.355042 873.449951,519.437500 
	C882.987854,519.479614 887.240845,523.719360 887.040161,532.597595 
	C886.891907,539.154541 882.382751,544.125610 875.808960,544.120972 
	C842.680542,544.097656 809.552307,543.891296 776.424011,543.750488 
	C773.093750,543.736328 769.763428,543.743652 766.433289,543.719055 
	C758.484863,543.660400 753.060120,538.649292 753.080200,531.400024 
	C753.101013,523.876038 758.046021,519.434570 766.544861,519.420227 
	C783.196533,519.392029 799.848389,519.411743 817.000122,519.411865 
z"/>
<path fill="#F98E4B" opacity="1.000000" stroke="none" 
	d="
M100.999870,536.140259 
	C75.014412,536.088806 49.528854,536.063049 24.043694,535.948425 
	C21.580290,535.937378 19.006510,535.731934 16.680935,534.995056 
	C11.940741,533.493042 8.971851,528.976501 9.046184,523.823059 
	C9.120281,518.685913 11.431328,514.754150 16.279980,512.894836 
	C18.537230,512.029175 21.150534,511.779205 23.602158,511.780487 
	C57.749294,511.798615 91.896652,511.864746 126.042992,512.075439 
	C128.930618,512.093323 132.108215,512.657349 134.630707,513.968689 
	C139.245407,516.367554 141.229141,521.900452 140.040787,526.848755 
	C138.746567,532.237854 134.367126,535.976013 128.482803,536.097473 
	C119.492020,536.283081 110.494522,536.142944 100.999870,536.140259 
z"/>
<path fill="#020101" opacity="1.000000" stroke="none" 
	d="
M444.028625,439.632019 
	C505.075562,438.153229 551.140015,489.432953 548.703308,544.029175 
	C547.650146,544.158997 546.539551,544.444214 545.438904,544.409668 
	C522.468872,543.690002 499.501129,542.894653 476.529388,542.237244 
	C473.796967,542.158997 472.458313,541.597717 471.903381,538.539490 
	C469.448242,525.009033 459.188599,516.385559 446.270294,516.593994 
	C433.073517,516.806824 423.124481,525.863464 420.948242,539.638977 
	C420.847961,540.273987 420.704376,540.902100 420.514160,541.875000 
	C395.225861,542.704651 370.014801,543.531738 344.830200,544.358032 
	C339.866180,500.607422 378.475708,441.481110 444.028625,439.632019 
z"/>
<path fill="#0F0804" opacity="1.000000" stroke="none" 
	d="
M293.393524,364.379547 
	C239.780685,412.457001 209.973038,472.418365 202.290314,543.769836 
	C201.430161,543.609802 200.569992,543.449829 199.709839,543.289795 
	C199.709839,538.544922 199.471024,533.786133 199.746277,529.057312 
	C202.972305,473.634857 222.340866,424.482880 258.251007,382.210205 
	C295.007294,338.941498 341.680573,311.864532 397.146790,300.020508 
	C413.789551,296.466675 430.646454,294.754761 447.619354,295.157532 
	C447.837921,295.975647 448.056488,296.793762 448.275055,297.611847 
	C389.687134,303.780243 337.886597,325.361969 293.393524,364.379547 
z"/>
<path fill="#0E0804" opacity="1.000000" stroke="none" 
	d="
M250.552872,484.421326 
	C269.184784,425.403442 306.239075,382.586151 361.528625,356.057068 
	C391.426941,341.711182 440.664734,332.399048 451.996674,338.742828 
	C449.606262,339.408661 447.254089,340.411987 444.819489,340.687805 
	C421.782440,343.297943 399.497284,349.019989 378.638367,359.003387 
	C302.342804,395.519592 259.580261,456.420074 248.386612,539.943359 
	C248.046295,542.482666 249.234634,546.707642 245.103546,546.587219 
	C240.559219,546.454834 242.107437,542.140442 242.098068,539.456177 
	C242.033112,520.817200 245.250778,502.655884 250.552872,484.421326 
z"/>
</svg>